# xmcd CD database file
#
# Track frame offsets:
#	150
#	21696
#	43190
#	58114
#	71562
#	86997
#	104362
#	124441
#
# Disc length: 1871 seconds
#
# Revision: 0
# Processed by: cddbd v1.5.2PL0 Copyright (c) Steve Scherf et al.
# Submitted via: CDex 1.51
#
DISCID=7d074d08
DTITLE=Various Artist - Coffee In Life Music CD
DYEAR=2007
DGENRE=Jazz
TTITLE0=Shrift - To The Floor
TTITLE1=Batidos - Buscame
TTITLE2=Bombay Dub Orchestra - Mumta
TTITLE3=Shrift - As Far As I Can See
TTITLE4=Karsh Kale - Drive
TTITLE5=Batidos - Agua
TTITLE6=Ray Sandoval - Waiting For Things Yet To Come
TTITLE7=Ray Sandoval - Lotus In D Minor
EXTD=YEAR: 2007
EXTT0=
EXTT1=
EXTT2=
EXTT3=
EXTT4=
EXTT5=
EXTT6=
EXTT7=
PLAYORDER=
